<mxfile host="app.diagrams.net" modified="2022-02-01T05:58:10.303Z" agent="5.0 (Macintosh; Intel Mac OS X 10_15_7) AppleWebKit/537.36 (KHTML, like Gecko) Chrome/97.0.4692.99 Safari/537.36" etag="9uG54c64navvPlJ8ONn2" version="16.5.2" type="github">
  <diagram id="TAajNdjcjUnQOEhiA-iW" name="Page-1">
    <mxGraphModel dx="1773" dy="589" grid="1" gridSize="10" guides="1" tooltips="1" connect="1" arrows="1" fold="1" page="1" pageScale="1" pageWidth="827" pageHeight="1169" math="0" shadow="0">
      <root>
        <mxCell id="0" />
        <mxCell id="1" parent="0" />
        <mxCell id="yh7LtCKUbRQa-FskaZRf-1" value="ログインページ" style="swimlane;childLayout=stackLayout;horizontal=1;startSize=30;horizontalStack=0;rounded=1;fontSize=14;fontStyle=0;strokeWidth=2;resizeParent=0;resizeLast=1;shadow=0;dashed=0;align=center;" vertex="1" parent="1">
          <mxGeometry x="-10" y="80" width="160" height="120" as="geometry" />
        </mxCell>
        <mxCell id="yh7LtCKUbRQa-FskaZRf-7" value="・email&lt;br&gt;・パスワード&lt;br&gt;・submitボタン" style="text;html=1;strokeColor=none;fillColor=none;align=left;verticalAlign=middle;whiteSpace=wrap;rounded=0;labelBackgroundColor=#ffffff;fontSize=14;" vertex="1" parent="yh7LtCKUbRQa-FskaZRf-1">
          <mxGeometry y="30" width="160" height="90" as="geometry" />
        </mxCell>
        <mxCell id="yh7LtCKUbRQa-FskaZRf-8" value="" style="endArrow=classic;html=1;rounded=0;fontSize=14;" edge="1" parent="1">
          <mxGeometry width="50" height="50" relative="1" as="geometry">
            <mxPoint x="150" y="170" as="sourcePoint" />
            <mxPoint x="210" y="170" as="targetPoint" />
          </mxGeometry>
        </mxCell>
      </root>
    </mxGraphModel>
  </diagram>
</mxfile>
